<svg width="88" height="20" viewBox="0 0 88 20" fill="none" xmlns="http://www.w3.org/2000/svg">
<path d="M9.12 19.536C8.07467 19.536 7.552 18.8747 7.552 17.552C7.552 15.952 8.288 13.52 9.76 10.256C10.2933 9.06133 10.8587 7.888 11.456 6.736C12.0533 5.584 12.6827 4.45333 13.344 3.344L8.544 4.72C7.584 4.99733 6.70933 5.18933 5.92 5.296C5.13067 5.40267 4.39467 5.456 3.712 5.456C1.77067 5.456 0.8 4.95467 0.8 3.952C0.8 3.65333 0.906667 3.33333 1.12 2.992C1.73867 2.05333 2.83733 1.33867 4.416 0.848C5.696 0.442666 7.02933 0.24 8.416 0.24C9.67467 0.24 10.592 0.325333 11.168 0.495998C11.4453 0.581332 11.584 0.719999 11.584 0.911999C11.584 1.08267 11.4987 1.168 11.328 1.168H11.232C10.3573 1.168 9.696 1.12533 9.248 1.04C8.8 0.954666 8.55467 0.911999 8.512 0.911999C7.424 0.911999 6.304 1.06133 5.152 1.36C3.70133 1.744 2.72 2.256 2.208 2.896C1.99467 3.13067 1.888 3.344 1.888 3.536C1.888 4.06933 2.53867 4.336 3.84 4.336C4.45867 4.336 5.19467 4.272 6.048 4.144C6.92267 3.99467 7.89333 3.78133 8.96 3.504C9.728 3.29067 10.3787 3.12 10.912 2.992C11.4667 2.84267 11.9893 2.704 12.48 2.576C12.9707 2.42667 13.5147 2.26667 14.112 2.096C14.1333 2.05333 14.208 1.936 14.336 1.744C14.464 1.53067 14.592 1.34933 14.72 1.2C15.0187 0.879999 15.5307 0.719999 16.256 0.719999C16.5333 0.719999 16.672 0.773333 16.672 0.879999C16.672 0.922665 16.4907 1.18933 16.128 1.68C16.7893 1.57333 17.4187 1.488 18.016 1.424C18.6347 1.36 19.2213 1.328 19.776 1.328C20.9493 1.328 22.1333 1.63733 23.328 2.256C24.7147 3.00267 25.408 3.888 25.408 4.912C25.408 5.25333 25.3013 5.424 25.088 5.424C24.9813 5.424 24.9067 5.328 24.864 5.136C24.8 4.79467 24.7147 4.51733 24.608 4.304C24.4373 3.984 24.1707 3.696 23.808 3.44C23.4453 3.16267 23.0293 2.93867 22.56 2.768C21.7067 2.448 20.8427 2.288 19.968 2.288C18.6027 2.288 17.0347 2.48 15.264 2.864C13.7493 5.01867 12.3627 7.36533 11.104 9.904C9.54667 13.04 8.768 15.6213 8.768 17.648C8.768 18.48 8.90667 18.896 9.184 18.896C9.35467 18.896 9.62133 18.7787 9.984 18.544C10.368 18.288 10.56 18.16 10.56 18.16C10.752 18.16 10.848 18.256 10.848 18.448C10.848 18.6827 10.6347 18.9173 10.208 19.152C9.76 19.408 9.39733 19.536 9.12 19.536ZM18.584 18.192C17.88 18.192 17.2613 17.9893 16.728 17.584C16.1947 17.1787 15.928 16.496 15.928 15.536C15.928 14.96 16.056 14.3413 16.312 13.68C16.568 12.9973 16.9093 12.3573 17.336 11.76C17.784 11.1627 18.2747 10.672 18.808 10.288C19.3413 9.904 19.8853 9.712 20.44 9.712C20.6533 9.712 20.8347 9.78667 20.984 9.936C21.1547 10.0853 21.24 10.3093 21.24 10.608C21.24 11.2693 20.7387 12.0693 19.736 13.008C19.3307 13.392 18.904 13.7333 18.456 14.032C18.0293 14.3307 17.6347 14.544 17.272 14.672C17.1867 14.9493 17.144 15.2693 17.144 15.632C17.144 16.1227 17.2613 16.5707 17.496 16.976C17.7307 17.3813 18.104 17.584 18.616 17.584C19.256 17.584 19.8427 17.4027 20.376 17.04C20.9093 16.6773 21.4 16.24 21.848 15.728C22.296 15.1947 22.6907 14.704 23.032 14.256C23.1813 14.0427 23.3307 13.936 23.48 13.936C23.5653 13.936 23.608 13.9787 23.608 14.064C23.608 14.1067 23.5973 14.16 23.576 14.224C23.5547 14.2667 23.5333 14.3093 23.512 14.352C23.1493 14.864 22.7333 15.4187 22.264 16.016C21.7947 16.6133 21.2613 17.1253 20.664 17.552C20.0667 17.9787 19.3733 18.192 18.584 18.192ZM17.496 14.032C18.0507 13.7973 18.6267 13.3813 19.224 12.784C19.928 12.1013 20.28 11.504 20.28 10.992C20.28 10.736 20.152 10.608 19.896 10.608C19.5547 10.608 19.0853 11.0987 18.488 12.08C17.9547 12.8907 17.624 13.5413 17.496 14.032ZM27.9023 18.512C27.1769 18.512 26.6649 18.32 26.3663 17.936C26.0889 17.552 25.9503 17.0613 25.9503 16.464C25.9503 15.9733 26.0249 15.4613 26.1743 14.928C26.3449 14.3733 26.5476 13.8613 26.7823 13.392C27.0169 12.9227 27.2196 12.5493 27.3903 12.272C27.3263 12.2933 27.2623 12.3147 27.1983 12.336C27.1343 12.336 27.0596 12.336 26.9743 12.336C26.6756 12.336 26.3449 12.2293 25.9823 12.016C25.5983 11.76 25.4062 11.4933 25.4062 11.216C25.2783 11.5147 25.0969 11.856 24.8623 12.24C24.6489 12.624 24.3929 13.04 24.0943 13.488C23.3049 14.7253 22.7823 15.344 22.5263 15.344C22.4409 15.344 22.3983 15.3013 22.3983 15.216C22.3983 15.1307 22.4623 15.0027 22.5903 14.832C22.9956 14.2773 23.4009 13.6373 23.8063 12.912C24.2329 12.1867 24.6596 11.376 25.0863 10.48C25.0649 10.3733 25.0436 10.2667 25.0223 10.16C25.0223 10.0533 25.0223 9.92533 25.0223 9.776C25.0223 9.28533 25.1183 8.72 25.3103 8.08C25.5449 7.26933 25.8329 6.864 26.1743 6.864C26.3876 6.864 26.5903 7.056 26.7823 7.44C26.8463 7.58933 26.8996 7.73867 26.9423 7.888C26.9849 8.016 27.0063 8.15467 27.0063 8.304C27.0063 8.816 26.5689 9.59467 25.6943 10.64C25.8863 11.3013 26.2596 11.632 26.8143 11.632C27.2196 11.632 27.5929 11.4293 27.9343 11.024C28.2969 10.5973 28.5529 10.384 28.7023 10.384C28.8943 10.384 29.0649 10.4587 29.2143 10.608C29.3636 10.7573 29.4383 10.9493 29.4383 11.184C29.4383 11.1627 29.2996 11.3547 29.0223 11.76C28.7663 12.1653 28.4676 12.7307 28.1263 13.456C27.7849 14.1813 27.5396 14.8 27.3903 15.312C27.2623 15.824 27.1983 16.2827 27.1983 16.688C27.1983 17.4347 27.5503 17.808 28.2543 17.808C28.9369 17.808 29.8009 17.2853 30.8463 16.24C31.1876 15.8773 31.5823 15.4187 32.0303 14.864C32.5849 14.1813 32.8623 13.84 32.8623 13.84C32.9476 13.84 32.9903 13.904 32.9903 14.032C32.9903 14.2027 32.9263 14.384 32.7983 14.576C32.4996 15.0453 32.1689 15.5147 31.8063 15.984C31.4649 16.432 31.1449 16.7947 30.8463 17.072C29.8649 18.032 28.8836 18.512 27.9023 18.512ZM37.3398 18.512C36.6144 18.512 36.1024 18.32 35.8038 17.936C35.5264 17.552 35.3878 17.0613 35.3878 16.464C35.3878 15.9733 35.4624 15.4613 35.6118 14.928C35.7824 14.3733 35.9851 13.8613 36.2198 13.392C36.4544 12.9227 36.6571 12.5493 36.8278 12.272C36.7638 12.2933 36.6998 12.3147 36.6358 12.336C36.5718 12.336 36.4971 12.336 36.4118 12.336C36.1131 12.336 35.7824 12.2293 35.4198 12.016C35.0358 11.76 34.8438 11.4933 34.8438 11.216C34.7158 11.5147 34.5344 11.856 34.2998 12.24C34.0864 12.624 33.8304 13.04 33.5318 13.488C32.7424 14.7253 32.2198 15.344 31.9638 15.344C31.8784 15.344 31.8358 15.3013 31.8358 15.216C31.8358 15.1307 31.8998 15.0027 32.0278 14.832C32.4331 14.2773 32.8384 13.6373 33.2438 12.912C33.6704 12.1867 34.0971 11.376 34.5238 10.48C34.5024 10.3733 34.4811 10.2667 34.4598 10.16C34.4598 10.0533 34.4598 9.92533 34.4598 9.776C34.4598 9.28533 34.5558 8.72 34.7478 8.08C34.9824 7.26933 35.2704 6.864 35.6118 6.864C35.8251 6.864 36.0278 7.056 36.2198 7.44C36.2838 7.58933 36.3371 7.73867 36.3798 7.888C36.4224 8.016 36.4438 8.15467 36.4438 8.304C36.4438 8.816 36.0064 9.59467 35.1318 10.64C35.3238 11.3013 35.6971 11.632 36.2518 11.632C36.6571 11.632 37.0304 11.4293 37.3718 11.024C37.7344 10.5973 37.9904 10.384 38.1398 10.384C38.3318 10.384 38.5024 10.4587 38.6518 10.608C38.8011 10.7573 38.8758 10.9493 38.8758 11.184C38.8758 11.1627 38.7371 11.3547 38.4598 11.76C38.2038 12.1653 37.9051 12.7307 37.5638 13.456C37.2224 14.1813 36.9771 14.8 36.8278 15.312C36.6998 15.824 36.6358 16.2827 36.6358 16.688C36.6358 17.4347 36.9878 17.808 37.6918 17.808C38.3744 17.808 39.2384 17.2853 40.2838 16.24C40.6251 15.8773 41.0198 15.4187 41.4678 14.864C42.0224 14.1813 42.2998 13.84 42.2998 13.84C42.3851 13.84 42.4278 13.904 42.4278 14.032C42.4278 14.2027 42.3638 14.384 42.2358 14.576C41.9371 15.0453 41.6064 15.5147 41.2438 15.984C40.9024 16.432 40.5824 16.7947 40.2838 17.072C39.3024 18.032 38.3211 18.512 37.3398 18.512ZM41.8493 18.096C41.1879 18.096 40.8573 17.7333 40.8573 17.008C40.8573 15.92 41.3906 14.5867 42.4573 13.008C43.5026 11.4507 44.5373 10.4907 45.5613 10.128C45.7533 10.064 45.9346 10.0107 46.1053 9.968C46.2759 9.92533 46.4466 9.904 46.6173 9.904C47.3853 9.904 47.9399 10.1707 48.2812 10.704C48.3453 10.7893 48.3773 10.864 48.3773 10.928C48.3773 10.9707 48.3026 11.0027 48.1533 11.024C48.0253 11.0453 47.9186 11.12 47.8333 11.248C47.3213 12.08 47.0653 13.328 47.0653 14.992C47.0653 16.528 47.3959 17.296 48.0573 17.296C48.5053 17.296 49.1559 16.8267 50.0093 15.888C50.1373 15.76 50.3186 15.536 50.5533 15.216C50.7879 14.896 51.0226 14.576 51.2573 14.256C51.4919 13.9147 51.6519 13.6907 51.7373 13.584C51.8013 13.52 51.8546 13.488 51.8973 13.488C51.9826 13.488 52.0253 13.5627 52.0253 13.712C52.0253 13.8187 51.9613 13.968 51.8333 14.16C51.3639 14.9067 50.8306 15.632 50.2333 16.336C49.6359 17.04 49.1239 17.4987 48.6973 17.712C48.3133 17.904 47.9293 18 47.5453 18C46.2439 18 45.5933 17.0827 45.5933 15.248C45.5933 15.0987 45.5933 14.9493 45.5933 14.8C45.6146 14.6293 45.6359 14.4587 45.6573 14.288C44.2066 16.8267 42.9373 18.096 41.8493 18.096ZM42.3932 17.136C42.6279 17.136 42.9053 17.008 43.2253 16.752C43.5453 16.4747 43.8759 16.112 44.2173 15.664C44.7293 14.9813 45.2093 14.256 45.6573 13.488C46.1053 12.72 46.4999 11.888 46.8413 10.992C46.7773 10.9707 46.6813 10.96 46.5533 10.96C45.6786 10.96 44.7933 11.504 43.8973 12.592C42.5959 14.1493 41.9453 15.44 41.9453 16.464C41.9453 16.912 42.0946 17.136 42.3932 17.136ZM55.8658 18.192C54.6498 18.192 54.0418 17.424 54.0418 15.888C54.0418 15.2053 54.1484 14.544 54.3618 13.904C54.5964 13.264 54.8631 12.6773 55.1618 12.144C54.4151 12.8053 53.6258 13.6267 52.7938 14.608C51.9831 15.568 51.1831 16.6453 50.3938 17.84C50.2658 18.032 50.1698 18.128 50.1058 18.128C49.9138 18.128 49.8178 17.936 49.8178 17.552C49.8178 17.4667 49.8391 17.3813 49.8818 17.296C50.1164 16.72 50.3511 16.0587 50.5858 15.312C50.8204 14.544 51.0551 13.648 51.2898 12.624C51.3324 12.4107 51.3751 12.1973 51.4178 11.984C51.4604 11.7707 51.5244 11.4933 51.6098 11.152C51.6524 11.024 51.8018 10.8747 52.0578 10.704C52.2711 10.5547 52.4844 10.48 52.6978 10.48C52.8471 10.48 52.9218 10.544 52.9218 10.672C52.9218 10.7787 52.7938 11.2373 52.5378 12.048C52.2818 12.8587 51.9084 14.0213 51.4178 15.536C51.5458 15.3653 51.8124 15.056 52.2178 14.608C52.6231 14.1387 53.1564 13.5413 53.8177 12.816L55.8018 10.64C55.9511 10.4907 56.1218 10.416 56.3138 10.416C56.8044 10.416 57.0498 10.6613 57.0498 11.152C57.0498 11.2587 57.0071 11.3867 56.9218 11.536C55.7271 13.4987 55.1298 15.056 55.1298 16.208C55.1298 17.0187 55.5138 17.424 56.2818 17.424C56.8364 17.424 57.4764 17.1147 58.2018 16.496C58.5004 16.2613 58.7564 16.0053 58.9698 15.728C59.2044 15.4293 59.4498 15.1093 59.7058 14.768C60.1538 14.1493 60.4098 13.84 60.4738 13.84C60.5378 13.84 60.5698 13.904 60.5698 14.032C60.5698 14.16 60.5058 14.3413 60.3778 14.576C58.9271 16.9867 57.4231 18.192 55.8658 18.192ZM60.388 18.384C59.6413 18.384 59.268 17.9467 59.268 17.072C59.268 15.856 59.8013 14.4267 60.868 12.784C60.8467 12.6773 60.8253 12.56 60.804 12.432C60.804 12.304 60.804 12.1867 60.804 12.08C60.804 11.312 61.06 10.5653 61.572 9.84C62.084 9.11467 62.7133 8.752 63.46 8.752C64.1 8.752 64.5267 8.976 64.74 9.424C64.9747 9.872 65.092 10.3733 65.092 10.928C65.092 11.3973 65.0387 11.8453 64.932 12.272C64.8253 12.72 64.6653 13.2213 64.452 13.776C64.2387 14.3307 63.972 14.9173 63.652 15.536C63.972 15.728 64.3347 15.824 64.74 15.824C65.1027 15.824 65.444 15.7813 65.764 15.696C66.084 15.5893 66.3827 15.3973 66.66 15.12C66.9373 14.8427 67.1507 14.5973 67.3 14.384C67.4707 14.1707 67.5453 14.0747 67.524 14.096C67.5667 14.0533 67.6093 14.032 67.652 14.032C67.7373 14.032 67.8013 14.0853 67.844 14.192C67.908 14.2987 67.8973 14.4053 67.812 14.512C67.4707 15.0027 67.0227 15.44 66.468 15.824C65.9347 16.1867 65.348 16.368 64.708 16.368C64.2173 16.368 63.7907 16.2613 63.428 16.048C62.4467 17.6053 61.4333 18.384 60.388 18.384ZM63.236 15.248C63.5133 14.5653 63.7267 13.9787 63.876 13.488C64.0253 12.9973 64.1 12.5387 64.1 12.112V11.856C64.1 11.28 64.004 10.7467 63.812 10.256C63.62 9.744 63.3427 9.488 62.98 9.488C62.4893 9.488 62.1053 9.78667 61.828 10.384C61.636 10.7893 61.54 11.2373 61.54 11.728V11.92C61.8813 11.5147 62.2227 11.312 62.564 11.312C62.884 11.312 63.1187 11.4187 63.268 11.632C63.332 11.7173 63.364 11.792 63.364 11.856C63.364 11.984 63.236 12.048 62.98 12.048C62.596 12.048 62.1907 12.4533 61.764 13.264C62.0627 14.096 62.5533 14.7573 63.236 15.248ZM60.9 17.616C61.1773 17.616 61.572 17.36 62.084 16.848C62.2973 16.6347 62.4787 16.432 62.628 16.24C62.7773 16.048 62.8947 15.8667 62.98 15.696C62.2547 15.2053 61.7213 14.6613 61.38 14.064C60.74 15.408 60.42 16.3787 60.42 16.976C60.42 17.4027 60.58 17.616 60.9 17.616ZM68.8205 17.904C68.0525 17.904 67.6685 17.3493 67.6685 16.24C67.6685 15.8773 67.7325 15.4613 67.8605 14.992C67.9885 14.5227 68.1912 14.0533 68.4685 13.584L68.0845 14.128C67.8925 14.384 67.7538 14.576 67.6685 14.704C67.6045 14.832 67.4765 15.0027 67.2845 15.216C67.1778 15.3227 67.0712 15.376 66.9645 15.376C66.8578 15.376 66.8045 15.3333 66.8045 15.248C66.8045 15.1413 66.8472 15.0347 66.9325 14.928C67.0178 14.8213 67.1992 14.5547 67.4765 14.128C67.7752 13.68 68.1058 13.1893 68.4685 12.656C68.6818 12.3573 68.9272 12.048 69.2045 11.728C69.5032 11.408 69.8658 11.248 70.2925 11.248C70.4205 11.248 70.5378 11.28 70.6445 11.344C70.7512 11.3867 70.8045 11.4507 70.8045 11.536C70.8045 11.6427 70.7618 11.7493 70.6765 11.856C69.9725 12.8373 69.4498 13.712 69.1085 14.48C68.7885 15.2267 68.6285 15.8773 68.6285 16.432C68.6285 16.88 68.8418 17.104 69.2685 17.104C69.5672 17.104 69.8765 16.9973 70.1965 16.784C70.5165 16.5707 70.8898 16.208 71.3165 15.696C71.6578 15.312 71.9565 14.9387 72.2125 14.576C72.4898 14.192 72.7352 13.7653 72.9485 13.296L72.8845 11.888C72.8845 10.672 73.3432 9.89333 74.2605 9.552C74.4312 9.488 74.5592 9.456 74.6445 9.456C74.9218 9.456 75.0605 9.648 75.0605 10.032C75.0605 10.928 74.6552 11.9733 73.8445 13.168V13.36C73.8445 13.8933 74.0152 14.3947 74.3565 14.864C74.5272 15.12 74.7085 15.3013 74.9005 15.408C75.1138 15.5147 75.3272 15.568 75.5405 15.568C75.9672 15.568 76.3618 15.408 76.7245 15.088C77.1085 14.7467 77.4818 14.2773 77.8445 13.68C77.9085 13.5947 77.9618 13.552 78.0045 13.552C78.1112 13.552 78.1645 13.68 78.1645 13.936C78.1645 14.0427 78.1432 14.1387 78.1005 14.224C77.7165 14.8213 77.3218 15.2907 76.9165 15.632C76.5112 15.9733 76.0205 16.144 75.4445 16.144C74.8045 16.144 74.2925 15.9413 73.9085 15.536C73.5458 15.1093 73.3112 14.5867 73.2045 13.968C72.8845 14.6293 72.2232 15.472 71.2205 16.496C70.7512 17.008 70.3032 17.3707 69.8765 17.584C69.4712 17.7973 69.1192 17.904 68.8205 17.904ZM77.4743 18.096C76.8129 18.096 76.4823 17.7333 76.4823 17.008C76.4823 15.92 77.0156 14.5867 78.0823 13.008C79.1276 11.4507 80.1623 10.4907 81.1863 10.128C81.3783 10.064 81.5596 10.0107 81.7303 9.968C81.9009 9.92533 82.0716 9.904 82.2423 9.904C83.0103 9.904 83.5649 10.1707 83.9062 10.704C83.9703 10.7893 84.0023 10.864 84.0023 10.928C84.0023 10.9707 83.9276 11.0027 83.7783 11.024C83.6503 11.0453 83.5436 11.12 83.4583 11.248C82.9463 12.08 82.6903 13.328 82.6903 14.992C82.6903 16.528 83.0209 17.296 83.6823 17.296C84.1303 17.296 84.7809 16.8267 85.6343 15.888C85.7623 15.76 85.9436 15.536 86.1783 15.216C86.4129 14.896 86.6476 14.576 86.8823 14.256C87.1169 13.9147 87.2769 13.6907 87.3623 13.584C87.4263 13.52 87.4796 13.488 87.5223 13.488C87.6076 13.488 87.6503 13.5627 87.6503 13.712C87.6503 13.8187 87.5863 13.968 87.4583 14.16C86.9889 14.9067 86.4556 15.632 85.8583 16.336C85.2609 17.04 84.7489 17.4987 84.3223 17.712C83.9383 17.904 83.5543 18 83.1703 18C81.8689 18 81.2183 17.0827 81.2183 15.248C81.2183 15.0987 81.2183 14.9493 81.2183 14.8C81.2396 14.6293 81.2609 14.4587 81.2823 14.288C79.8316 16.8267 78.5623 18.096 77.4743 18.096ZM78.0182 17.136C78.2529 17.136 78.5303 17.008 78.8503 16.752C79.1703 16.4747 79.5009 16.112 79.8423 15.664C80.3543 14.9813 80.8343 14.256 81.2823 13.488C81.7303 12.72 82.1249 11.888 82.4663 10.992C82.4023 10.9707 82.3063 10.96 82.1783 10.96C81.3036 10.96 80.4183 11.504 79.5223 12.592C78.2209 14.1493 77.5703 15.44 77.5703 16.464C77.5703 16.912 77.7196 17.136 78.0182 17.136Z" fill="url(#paint0_linear_1_2)"/>
<path d="M9.12 19.536C8.07467 19.536 7.552 18.8747 7.552 17.552C7.552 15.952 8.288 13.52 9.76 10.256C10.2933 9.06133 10.8587 7.888 11.456 6.736C12.0533 5.584 12.6827 4.45333 13.344 3.344L8.544 4.72C7.584 4.99733 6.70933 5.18933 5.92 5.296C5.13067 5.40267 4.39467 5.456 3.712 5.456C1.77067 5.456 0.8 4.95467 0.8 3.952C0.8 3.65333 0.906667 3.33333 1.12 2.992C1.73867 2.05333 2.83733 1.33867 4.416 0.848C5.696 0.442666 7.02933 0.24 8.416 0.24C9.67467 0.24 10.592 0.325333 11.168 0.495998C11.4453 0.581332 11.584 0.719999 11.584 0.911999C11.584 1.08267 11.4987 1.168 11.328 1.168H11.232C10.3573 1.168 9.696 1.12533 9.248 1.04C8.8 0.954666 8.55467 0.911999 8.512 0.911999C7.424 0.911999 6.304 1.06133 5.152 1.36C3.70133 1.744 2.72 2.256 2.208 2.896C1.99467 3.13067 1.888 3.344 1.888 3.536C1.888 4.06933 2.53867 4.336 3.84 4.336C4.45867 4.336 5.19467 4.272 6.048 4.144C6.92267 3.99467 7.89333 3.78133 8.96 3.504C9.728 3.29067 10.3787 3.12 10.912 2.992C11.4667 2.84267 11.9893 2.704 12.48 2.576C12.9707 2.42667 13.5147 2.26667 14.112 2.096C14.1333 2.05333 14.208 1.936 14.336 1.744C14.464 1.53067 14.592 1.34933 14.72 1.2C15.0187 0.879999 15.5307 0.719999 16.256 0.719999C16.5333 0.719999 16.672 0.773333 16.672 0.879999C16.672 0.922665 16.4907 1.18933 16.128 1.68C16.7893 1.57333 17.4187 1.488 18.016 1.424C18.6347 1.36 19.2213 1.328 19.776 1.328C20.9493 1.328 22.1333 1.63733 23.328 2.256C24.7147 3.00267 25.408 3.888 25.408 4.912C25.408 5.25333 25.3013 5.424 25.088 5.424C24.9813 5.424 24.9067 5.328 24.864 5.136C24.8 4.79467 24.7147 4.51733 24.608 4.304C24.4373 3.984 24.1707 3.696 23.808 3.44C23.4453 3.16267 23.0293 2.93867 22.56 2.768C21.7067 2.448 20.8427 2.288 19.968 2.288C18.6027 2.288 17.0347 2.48 15.264 2.864C13.7493 5.01867 12.3627 7.36533 11.104 9.904C9.54667 13.04 8.768 15.6213 8.768 17.648C8.768 18.48 8.90667 18.896 9.184 18.896C9.35467 18.896 9.62133 18.7787 9.984 18.544C10.368 18.288 10.56 18.16 10.56 18.16C10.752 18.16 10.848 18.256 10.848 18.448C10.848 18.6827 10.6347 18.9173 10.208 19.152C9.76 19.408 9.39733 19.536 9.12 19.536ZM18.584 18.192C17.88 18.192 17.2613 17.9893 16.728 17.584C16.1947 17.1787 15.928 16.496 15.928 15.536C15.928 14.96 16.056 14.3413 16.312 13.68C16.568 12.9973 16.9093 12.3573 17.336 11.76C17.784 11.1627 18.2747 10.672 18.808 10.288C19.3413 9.904 19.8853 9.712 20.44 9.712C20.6533 9.712 20.8347 9.78667 20.984 9.936C21.1547 10.0853 21.24 10.3093 21.24 10.608C21.24 11.2693 20.7387 12.0693 19.736 13.008C19.3307 13.392 18.904 13.7333 18.456 14.032C18.0293 14.3307 17.6347 14.544 17.272 14.672C17.1867 14.9493 17.144 15.2693 17.144 15.632C17.144 16.1227 17.2613 16.5707 17.496 16.976C17.7307 17.3813 18.104 17.584 18.616 17.584C19.256 17.584 19.8427 17.4027 20.376 17.04C20.9093 16.6773 21.4 16.24 21.848 15.728C22.296 15.1947 22.6907 14.704 23.032 14.256C23.1813 14.0427 23.3307 13.936 23.48 13.936C23.5653 13.936 23.608 13.9787 23.608 14.064C23.608 14.1067 23.5973 14.16 23.576 14.224C23.5547 14.2667 23.5333 14.3093 23.512 14.352C23.1493 14.864 22.7333 15.4187 22.264 16.016C21.7947 16.6133 21.2613 17.1253 20.664 17.552C20.0667 17.9787 19.3733 18.192 18.584 18.192ZM17.496 14.032C18.0507 13.7973 18.6267 13.3813 19.224 12.784C19.928 12.1013 20.28 11.504 20.28 10.992C20.28 10.736 20.152 10.608 19.896 10.608C19.5547 10.608 19.0853 11.0987 18.488 12.08C17.9547 12.8907 17.624 13.5413 17.496 14.032ZM27.9023 18.512C27.1769 18.512 26.6649 18.32 26.3663 17.936C26.0889 17.552 25.9503 17.0613 25.9503 16.464C25.9503 15.9733 26.0249 15.4613 26.1743 14.928C26.3449 14.3733 26.5476 13.8613 26.7823 13.392C27.0169 12.9227 27.2196 12.5493 27.3903 12.272C27.3263 12.2933 27.2623 12.3147 27.1983 12.336C27.1343 12.336 27.0596 12.336 26.9743 12.336C26.6756 12.336 26.3449 12.2293 25.9823 12.016C25.5983 11.76 25.4062 11.4933 25.4062 11.216C25.2783 11.5147 25.0969 11.856 24.8623 12.24C24.6489 12.624 24.3929 13.04 24.0943 13.488C23.3049 14.7253 22.7823 15.344 22.5263 15.344C22.4409 15.344 22.3983 15.3013 22.3983 15.216C22.3983 15.1307 22.4623 15.0027 22.5903 14.832C22.9956 14.2773 23.4009 13.6373 23.8063 12.912C24.2329 12.1867 24.6596 11.376 25.0863 10.48C25.0649 10.3733 25.0436 10.2667 25.0223 10.16C25.0223 10.0533 25.0223 9.92533 25.0223 9.776C25.0223 9.28533 25.1183 8.72 25.3103 8.08C25.5449 7.26933 25.8329 6.864 26.1743 6.864C26.3876 6.864 26.5903 7.056 26.7823 7.44C26.8463 7.58933 26.8996 7.73867 26.9423 7.888C26.9849 8.016 27.0063 8.15467 27.0063 8.304C27.0063 8.816 26.5689 9.59467 25.6943 10.64C25.8863 11.3013 26.2596 11.632 26.8143 11.632C27.2196 11.632 27.5929 11.4293 27.9343 11.024C28.2969 10.5973 28.5529 10.384 28.7023 10.384C28.8943 10.384 29.0649 10.4587 29.2143 10.608C29.3636 10.7573 29.4383 10.9493 29.4383 11.184C29.4383 11.1627 29.2996 11.3547 29.0223 11.76C28.7663 12.1653 28.4676 12.7307 28.1263 13.456C27.7849 14.1813 27.5396 14.8 27.3903 15.312C27.2623 15.824 27.1983 16.2827 27.1983 16.688C27.1983 17.4347 27.5503 17.808 28.2543 17.808C28.9369 17.808 29.8009 17.2853 30.8463 16.24C31.1876 15.8773 31.5823 15.4187 32.0303 14.864C32.5849 14.1813 32.8623 13.84 32.8623 13.84C32.9476 13.84 32.9903 13.904 32.9903 14.032C32.9903 14.2027 32.9263 14.384 32.7983 14.576C32.4996 15.0453 32.1689 15.5147 31.8063 15.984C31.4649 16.432 31.1449 16.7947 30.8463 17.072C29.8649 18.032 28.8836 18.512 27.9023 18.512ZM37.3398 18.512C36.6144 18.512 36.1024 18.32 35.8038 17.936C35.5264 17.552 35.3878 17.0613 35.3878 16.464C35.3878 15.9733 35.4624 15.4613 35.6118 14.928C35.7824 14.3733 35.9851 13.8613 36.2198 13.392C36.4544 12.9227 36.6571 12.5493 36.8278 12.272C36.7638 12.2933 36.6998 12.3147 36.6358 12.336C36.5718 12.336 36.4971 12.336 36.4118 12.336C36.1131 12.336 35.7824 12.2293 35.4198 12.016C35.0358 11.76 34.8438 11.4933 34.8438 11.216C34.7158 11.5147 34.5344 11.856 34.2998 12.24C34.0864 12.624 33.8304 13.04 33.5318 13.488C32.7424 14.7253 32.2198 15.344 31.9638 15.344C31.8784 15.344 31.8358 15.3013 31.8358 15.216C31.8358 15.1307 31.8998 15.0027 32.0278 14.832C32.4331 14.2773 32.8384 13.6373 33.2438 12.912C33.6704 12.1867 34.0971 11.376 34.5238 10.48C34.5024 10.3733 34.4811 10.2667 34.4598 10.16C34.4598 10.0533 34.4598 9.92533 34.4598 9.776C34.4598 9.28533 34.5558 8.72 34.7478 8.08C34.9824 7.26933 35.2704 6.864 35.6118 6.864C35.8251 6.864 36.0278 7.056 36.2198 7.44C36.2838 7.58933 36.3371 7.73867 36.3798 7.888C36.4224 8.016 36.4438 8.15467 36.4438 8.304C36.4438 8.816 36.0064 9.59467 35.1318 10.64C35.3238 11.3013 35.6971 11.632 36.2518 11.632C36.6571 11.632 37.0304 11.4293 37.3718 11.024C37.7344 10.5973 37.9904 10.384 38.1398 10.384C38.3318 10.384 38.5024 10.4587 38.6518 10.608C38.8011 10.7573 38.8758 10.9493 38.8758 11.184C38.8758 11.1627 38.7371 11.3547 38.4598 11.76C38.2038 12.1653 37.9051 12.7307 37.5638 13.456C37.2224 14.1813 36.9771 14.8 36.8278 15.312C36.6998 15.824 36.6358 16.2827 36.6358 16.688C36.6358 17.4347 36.9878 17.808 37.6918 17.808C38.3744 17.808 39.2384 17.2853 40.2838 16.24C40.6251 15.8773 41.0198 15.4187 41.4678 14.864C42.0224 14.1813 42.2998 13.84 42.2998 13.84C42.3851 13.84 42.4278 13.904 42.4278 14.032C42.4278 14.2027 42.3638 14.384 42.2358 14.576C41.9371 15.0453 41.6064 15.5147 41.2438 15.984C40.9024 16.432 40.5824 16.7947 40.2838 17.072C39.3024 18.032 38.3211 18.512 37.3398 18.512ZM41.8493 18.096C41.1879 18.096 40.8573 17.7333 40.8573 17.008C40.8573 15.92 41.3906 14.5867 42.4573 13.008C43.5026 11.4507 44.5373 10.4907 45.5613 10.128C45.7533 10.064 45.9346 10.0107 46.1053 9.968C46.2759 9.92533 46.4466 9.904 46.6173 9.904C47.3853 9.904 47.9399 10.1707 48.2812 10.704C48.3453 10.7893 48.3773 10.864 48.3773 10.928C48.3773 10.9707 48.3026 11.0027 48.1533 11.024C48.0253 11.0453 47.9186 11.12 47.8333 11.248C47.3213 12.08 47.0653 13.328 47.0653 14.992C47.0653 16.528 47.3959 17.296 48.0573 17.296C48.5053 17.296 49.1559 16.8267 50.0093 15.888C50.1373 15.76 50.3186 15.536 50.5533 15.216C50.7879 14.896 51.0226 14.576 51.2573 14.256C51.4919 13.9147 51.6519 13.6907 51.7373 13.584C51.8013 13.52 51.8546 13.488 51.8973 13.488C51.9826 13.488 52.0253 13.5627 52.0253 13.712C52.0253 13.8187 51.9613 13.968 51.8333 14.16C51.3639 14.9067 50.8306 15.632 50.2333 16.336C49.6359 17.04 49.1239 17.4987 48.6973 17.712C48.3133 17.904 47.9293 18 47.5453 18C46.2439 18 45.5933 17.0827 45.5933 15.248C45.5933 15.0987 45.5933 14.9493 45.5933 14.8C45.6146 14.6293 45.6359 14.4587 45.6573 14.288C44.2066 16.8267 42.9373 18.096 41.8493 18.096ZM42.3932 17.136C42.6279 17.136 42.9053 17.008 43.2253 16.752C43.5453 16.4747 43.8759 16.112 44.2173 15.664C44.7293 14.9813 45.2093 14.256 45.6573 13.488C46.1053 12.72 46.4999 11.888 46.8413 10.992C46.7773 10.9707 46.6813 10.96 46.5533 10.96C45.6786 10.96 44.7933 11.504 43.8973 12.592C42.5959 14.1493 41.9453 15.44 41.9453 16.464C41.9453 16.912 42.0946 17.136 42.3932 17.136ZM55.8658 18.192C54.6498 18.192 54.0418 17.424 54.0418 15.888C54.0418 15.2053 54.1484 14.544 54.3618 13.904C54.5964 13.264 54.8631 12.6773 55.1618 12.144C54.4151 12.8053 53.6258 13.6267 52.7938 14.608C51.9831 15.568 51.1831 16.6453 50.3938 17.84C50.2658 18.032 50.1698 18.128 50.1058 18.128C49.9138 18.128 49.8178 17.936 49.8178 17.552C49.8178 17.4667 49.8391 17.3813 49.8818 17.296C50.1164 16.72 50.3511 16.0587 50.5858 15.312C50.8204 14.544 51.0551 13.648 51.2898 12.624C51.3324 12.4107 51.3751 12.1973 51.4178 11.984C51.4604 11.7707 51.5244 11.4933 51.6098 11.152C51.6524 11.024 51.8018 10.8747 52.0578 10.704C52.2711 10.5547 52.4844 10.48 52.6978 10.48C52.8471 10.48 52.9218 10.544 52.9218 10.672C52.9218 10.7787 52.7938 11.2373 52.5378 12.048C52.2818 12.8587 51.9084 14.0213 51.4178 15.536C51.5458 15.3653 51.8124 15.056 52.2178 14.608C52.6231 14.1387 53.1564 13.5413 53.8177 12.816L55.8018 10.64C55.9511 10.4907 56.1218 10.416 56.3138 10.416C56.8044 10.416 57.0498 10.6613 57.0498 11.152C57.0498 11.2587 57.0071 11.3867 56.9218 11.536C55.7271 13.4987 55.1298 15.056 55.1298 16.208C55.1298 17.0187 55.5138 17.424 56.2818 17.424C56.8364 17.424 57.4764 17.1147 58.2018 16.496C58.5004 16.2613 58.7564 16.0053 58.9698 15.728C59.2044 15.4293 59.4498 15.1093 59.7058 14.768C60.1538 14.1493 60.4098 13.84 60.4738 13.84C60.5378 13.84 60.5698 13.904 60.5698 14.032C60.5698 14.16 60.5058 14.3413 60.3778 14.576C58.9271 16.9867 57.4231 18.192 55.8658 18.192ZM60.388 18.384C59.6413 18.384 59.268 17.9467 59.268 17.072C59.268 15.856 59.8013 14.4267 60.868 12.784C60.8467 12.6773 60.8253 12.56 60.804 12.432C60.804 12.304 60.804 12.1867 60.804 12.08C60.804 11.312 61.06 10.5653 61.572 9.84C62.084 9.11467 62.7133 8.752 63.46 8.752C64.1 8.752 64.5267 8.976 64.74 9.424C64.9747 9.872 65.092 10.3733 65.092 10.928C65.092 11.3973 65.0387 11.8453 64.932 12.272C64.8253 12.72 64.6653 13.2213 64.452 13.776C64.2387 14.3307 63.972 14.9173 63.652 15.536C63.972 15.728 64.3347 15.824 64.74 15.824C65.1027 15.824 65.444 15.7813 65.764 15.696C66.084 15.5893 66.3827 15.3973 66.66 15.12C66.9373 14.8427 67.1507 14.5973 67.3 14.384C67.4707 14.1707 67.5453 14.0747 67.524 14.096C67.5667 14.0533 67.6093 14.032 67.652 14.032C67.7373 14.032 67.8013 14.0853 67.844 14.192C67.908 14.2987 67.8973 14.4053 67.812 14.512C67.4707 15.0027 67.0227 15.44 66.468 15.824C65.9347 16.1867 65.348 16.368 64.708 16.368C64.2173 16.368 63.7907 16.2613 63.428 16.048C62.4467 17.6053 61.4333 18.384 60.388 18.384ZM63.236 15.248C63.5133 14.5653 63.7267 13.9787 63.876 13.488C64.0253 12.9973 64.1 12.5387 64.1 12.112V11.856C64.1 11.28 64.004 10.7467 63.812 10.256C63.62 9.744 63.3427 9.488 62.98 9.488C62.4893 9.488 62.1053 9.78667 61.828 10.384C61.636 10.7893 61.54 11.2373 61.54 11.728V11.92C61.8813 11.5147 62.2227 11.312 62.564 11.312C62.884 11.312 63.1187 11.4187 63.268 11.632C63.332 11.7173 63.364 11.792 63.364 11.856C63.364 11.984 63.236 12.048 62.98 12.048C62.596 12.048 62.1907 12.4533 61.764 13.264C62.0627 14.096 62.5533 14.7573 63.236 15.248ZM60.9 17.616C61.1773 17.616 61.572 17.36 62.084 16.848C62.2973 16.6347 62.4787 16.432 62.628 16.24C62.7773 16.048 62.8947 15.8667 62.98 15.696C62.2547 15.2053 61.7213 14.6613 61.38 14.064C60.74 15.408 60.42 16.3787 60.42 16.976C60.42 17.4027 60.58 17.616 60.9 17.616ZM68.8205 17.904C68.0525 17.904 67.6685 17.3493 67.6685 16.24C67.6685 15.8773 67.7325 15.4613 67.8605 14.992C67.9885 14.5227 68.1912 14.0533 68.4685 13.584L68.0845 14.128C67.8925 14.384 67.7538 14.576 67.6685 14.704C67.6045 14.832 67.4765 15.0027 67.2845 15.216C67.1778 15.3227 67.0712 15.376 66.9645 15.376C66.8578 15.376 66.8045 15.3333 66.8045 15.248C66.8045 15.1413 66.8472 15.0347 66.9325 14.928C67.0178 14.8213 67.1992 14.5547 67.4765 14.128C67.7752 13.68 68.1058 13.1893 68.4685 12.656C68.6818 12.3573 68.9272 12.048 69.2045 11.728C69.5032 11.408 69.8658 11.248 70.2925 11.248C70.4205 11.248 70.5378 11.28 70.6445 11.344C70.7512 11.3867 70.8045 11.4507 70.8045 11.536C70.8045 11.6427 70.7618 11.7493 70.6765 11.856C69.9725 12.8373 69.4498 13.712 69.1085 14.48C68.7885 15.2267 68.6285 15.8773 68.6285 16.432C68.6285 16.88 68.8418 17.104 69.2685 17.104C69.5672 17.104 69.8765 16.9973 70.1965 16.784C70.5165 16.5707 70.8898 16.208 71.3165 15.696C71.6578 15.312 71.9565 14.9387 72.2125 14.576C72.4898 14.192 72.7352 13.7653 72.9485 13.296L72.8845 11.888C72.8845 10.672 73.3432 9.89333 74.2605 9.552C74.4312 9.488 74.5592 9.456 74.6445 9.456C74.9218 9.456 75.0605 9.648 75.0605 10.032C75.0605 10.928 74.6552 11.9733 73.8445 13.168V13.36C73.8445 13.8933 74.0152 14.3947 74.3565 14.864C74.5272 15.12 74.7085 15.3013 74.9005 15.408C75.1138 15.5147 75.3272 15.568 75.5405 15.568C75.9672 15.568 76.3618 15.408 76.7245 15.088C77.1085 14.7467 77.4818 14.2773 77.8445 13.68C77.9085 13.5947 77.9618 13.552 78.0045 13.552C78.1112 13.552 78.1645 13.68 78.1645 13.936C78.1645 14.0427 78.1432 14.1387 78.1005 14.224C77.7165 14.8213 77.3218 15.2907 76.9165 15.632C76.5112 15.9733 76.0205 16.144 75.4445 16.144C74.8045 16.144 74.2925 15.9413 73.9085 15.536C73.5458 15.1093 73.3112 14.5867 73.2045 13.968C72.8845 14.6293 72.2232 15.472 71.2205 16.496C70.7512 17.008 70.3032 17.3707 69.8765 17.584C69.4712 17.7973 69.1192 17.904 68.8205 17.904ZM77.4743 18.096C76.8129 18.096 76.4823 17.7333 76.4823 17.008C76.4823 15.92 77.0156 14.5867 78.0823 13.008C79.1276 11.4507 80.1623 10.4907 81.1863 10.128C81.3783 10.064 81.5596 10.0107 81.7303 9.968C81.9009 9.92533 82.0716 9.904 82.2423 9.904C83.0103 9.904 83.5649 10.1707 83.9062 10.704C83.9703 10.7893 84.0023 10.864 84.0023 10.928C84.0023 10.9707 83.9276 11.0027 83.7783 11.024C83.6503 11.0453 83.5436 11.12 83.4583 11.248C82.9463 12.08 82.6903 13.328 82.6903 14.992C82.6903 16.528 83.0209 17.296 83.6823 17.296C84.1303 17.296 84.7809 16.8267 85.6343 15.888C85.7623 15.76 85.9436 15.536 86.1783 15.216C86.4129 14.896 86.6476 14.576 86.8823 14.256C87.1169 13.9147 87.2769 13.6907 87.3623 13.584C87.4263 13.52 87.4796 13.488 87.5223 13.488C87.6076 13.488 87.6503 13.5627 87.6503 13.712C87.6503 13.8187 87.5863 13.968 87.4583 14.16C86.9889 14.9067 86.4556 15.632 85.8583 16.336C85.2609 17.04 84.7489 17.4987 84.3223 17.712C83.9383 17.904 83.5543 18 83.1703 18C81.8689 18 81.2183 17.0827 81.2183 15.248C81.2183 15.0987 81.2183 14.9493 81.2183 14.8C81.2396 14.6293 81.2609 14.4587 81.2823 14.288C79.8316 16.8267 78.5623 18.096 77.4743 18.096ZM78.0182 17.136C78.2529 17.136 78.5303 17.008 78.8503 16.752C79.1703 16.4747 79.5009 16.112 79.8423 15.664C80.3543 14.9813 80.8343 14.256 81.2823 13.488C81.7303 12.72 82.1249 11.888 82.4663 10.992C82.4023 10.9707 82.3063 10.96 82.1783 10.96C81.3036 10.96 80.4183 11.504 79.5223 12.592C78.2209 14.1493 77.5703 15.44 77.5703 16.464C77.5703 16.912 77.7196 17.136 78.0182 17.136Z" fill="url(#paint1_linear_1_2)"/>
<defs>
<linearGradient id="paint0_linear_1_2" x1="56.0162" y1="64.3784" x2="40.2654" y2="70.5966" gradientUnits="userSpaceOnUse">
<stop stop-color="#FF4500"/>
<stop offset="0.980988" stop-color="#FF4500" stop-opacity="0"/>
</linearGradient>
<linearGradient id="paint1_linear_1_2" x1="35.3297" y1="-8.09459" x2="26.2316" y2="25.984" gradientUnits="userSpaceOnUse">
<stop stop-color="#8B0000"/>
<stop offset="1" stop-color="#FFFF00" stop-opacity="0"/>
</linearGradient>
</defs>
</svg>
