<svg t="1681284319498" class="icon" viewBox="0 0 1024 1024" version="1.1" xmlns="http://www.w3.org/2000/svg" p-id="1905" width="64" height="64"><path d="M267.843658 119.895841C282.212494 118.490516 295.657909 117.807057 308.273486 117.807057 409.332273 117.807057 457.784252 161.563093 513.279711 227.823559 568.772915 161.563093 617.250825 117.807057 718.29721 117.807057 730.909404 117.807057 744.354819 118.490516 758.725911 119.895841 846.176922 128.453196 947.303359 208.675421 959.616766 362.407291L959.616766 413.572923C948.146728 560.711959 837.294492 680.816536 513.278583 908.518962 189.272821 680.816536 78.39127 560.711959 66.923487 413.572923L66.923487 362.407291C79.263955 208.675421 180.391518 128.453196 267.843658 119.895841L267.843658 119.895841ZM706.199154 204.966669C713.840209 205.010726 721.486902 205.363188 729.082856 206.217229 730.13594 206.335846 731.189023 206.458981 732.239852 206.592284 732.327796 206.60471 732.401084 206.614878 732.502559 206.629563 734.052869 206.862279 735.603179 207.099512 737.148978 207.370635 740.52809 207.96372 743.898183 208.617806 747.238959 209.402937 753.565352 210.888471 759.830859 212.666593 765.946409 214.877383 767.573389 215.465949 769.198114 216.064682 770.804798 216.706341 771.205061 216.865627 772.75086 217.523103 773.357455 217.776153 775.692503 218.813202 778.011767 219.884141 780.29044 221.042068 785.41943 223.649377 790.430031 226.500699 795.233174 229.67511 797.549055 231.206961 799.837876 232.78174 802.06694 234.440115 802.548381 234.798225 803.025313 235.160854 803.503373 235.521223 803.520285 235.533649 803.529305 235.540428 803.546217 235.555113 804.482041 236.304094 805.414482 237.057592 806.332265 237.828037 814.033078 244.299995 821.146464 251.468967 827.505553 259.272822 828.168522 260.087324 828.828108 260.904085 829.477548 261.729884 830.420136 262.982703 831.353704 264.24117 832.262468 265.519973 834.102545 268.109207 835.889629 270.737981 837.591024 273.42098 840.964499 278.74179 844.101199 284.213978 846.943621 289.838673 848.333826 292.589451 849.675549 295.365084 850.941729 298.175737 851.459251 299.325756 851.96888 300.480292 852.467235 301.639348 852.637486 302.053941 852.808866 302.467406 852.975737 302.881999 854.885718 307.636838 856.649125 312.45155 858.221985 317.329523 860.577329 324.630669 862.59555 332.050432 864.128948 339.569606 864.566417 341.708097 864.971189 343.854496 865.312821 346.012192 865.887845 349.639606 865.304929 345.891316 865.161736 344.689332 866.073882 352.320345 870.873642 358.793433 879.238551 358.793433 886.218892 358.793433 894.229766 352.338421 893.315365 344.689332 890.416567 320.461007 882.031364 296.550123 870.922125 274.952831 857.410186 248.687685 838.198745 225.53143 814.043225 208.4653 782.628871 186.269275 744.271385 176.983275 706.200282 176.759597 688.039669 176.652278 688.049816 204.860478 706.199154 204.966669L706.199154 204.966669Z" fill="#d4237a" p-id="1906"></path></svg>