<svg width="22" height="11" viewBox="0 0 22 11" fill="none" xmlns="http://www.w3.org/2000/svg">
<path d="M4.56 10.768C4.03733 10.768 3.776 10.4373 3.776 9.776C3.776 8.976 4.144 7.76 4.88 6.128C5.14667 5.53067 5.42933 4.944 5.728 4.368C6.02667 3.792 6.34133 3.22667 6.672 2.672L4.272 3.36C3.792 3.49867 3.35467 3.59467 2.96 3.648C2.56533 3.70133 2.19733 3.728 1.856 3.728C0.885333 3.728 0.4 3.47733 0.4 2.976C0.4 2.82667 0.453333 2.66667 0.56 2.496C0.869333 2.02667 1.41867 1.66933 2.208 1.424C2.848 1.22133 3.51467 1.12 4.208 1.12C4.83733 1.12 5.296 1.16267 5.584 1.248C5.72267 1.29067 5.792 1.36 5.792 1.456C5.792 1.54133 5.74933 1.584 5.664 1.584H5.616C5.17867 1.584 4.848 1.56267 4.624 1.52C4.4 1.47733 4.27733 1.456 4.256 1.456C3.712 1.456 3.152 1.53067 2.576 1.68C1.85067 1.872 1.36 2.128 1.104 2.448C0.997333 2.56533 0.944 2.672 0.944 2.768C0.944 3.03467 1.26933 3.168 1.92 3.168C2.22933 3.168 2.59733 3.136 3.024 3.072C3.46133 2.99733 3.94667 2.89067 4.48 2.752C4.864 2.64533 5.18933 2.56 5.456 2.496C5.73333 2.42133 5.99467 2.352 6.24 2.288C6.48533 2.21333 6.75733 2.13333 7.056 2.048C7.06667 2.02667 7.104 1.968 7.168 1.872C7.232 1.76533 7.296 1.67467 7.36 1.6C7.50933 1.44 7.76533 1.36 8.128 1.36C8.26667 1.36 8.336 1.38667 8.336 1.44C8.336 1.46133 8.24533 1.59467 8.064 1.84C8.39467 1.78667 8.70933 1.744 9.008 1.712C9.31733 1.68 9.61067 1.664 9.888 1.664C10.4747 1.664 11.0667 1.81867 11.664 2.128C12.3573 2.50133 12.704 2.944 12.704 3.456C12.704 3.62667 12.6507 3.712 12.544 3.712C12.4907 3.712 12.4533 3.664 12.432 3.568C12.4 3.39733 12.3573 3.25867 12.304 3.152C12.2187 2.992 12.0853 2.848 11.904 2.72C11.7227 2.58133 11.5147 2.46933 11.28 2.384C10.8533 2.224 10.4213 2.144 9.984 2.144C9.30133 2.144 8.51733 2.24 7.632 2.432C6.87467 3.50933 6.18133 4.68267 5.552 5.952C4.77333 7.52 4.384 8.81067 4.384 9.824C4.384 10.24 4.45333 10.448 4.592 10.448C4.67733 10.448 4.81067 10.3893 4.992 10.272C5.184 10.144 5.28 10.08 5.28 10.08C5.376 10.08 5.424 10.128 5.424 10.224C5.424 10.3413 5.31733 10.4587 5.104 10.576C4.88 10.704 4.69867 10.768 4.56 10.768ZM14.06 10.592C13.8253 10.592 13.708 10.4747 13.708 10.24C13.708 10.1547 13.724 10.0907 13.756 10.048C14.0333 9.70667 14.332 9.25867 14.652 8.704C14.972 8.13867 15.324 7.42933 15.708 6.576C16.476 4.85867 16.86 3.61067 16.86 2.832C16.86 1.68 16.1773 1.104 14.812 1.104C14.1613 1.104 13.42 1.248 12.588 1.536C12.108 1.696 11.6387 1.888 11.18 2.112C10.732 2.336 10.2733 2.61333 9.804 2.944C8.62 3.75467 8.028 4.53333 8.028 5.28C8.028 5.888 8.43867 6.192 9.26 6.192C9.676 6.192 10.268 6.08533 11.036 5.872C11.0787 5.86133 11.1107 5.856 11.132 5.856C11.164 5.84533 11.1853 5.84 11.196 5.84C11.2813 5.84 11.324 5.872 11.324 5.936C11.324 6.11733 11.0467 6.272 10.492 6.4C10.2787 6.44267 10.0813 6.48 9.9 6.512C9.71867 6.544 9.55333 6.56 9.404 6.56C8.20933 6.56 7.612 6.09067 7.612 5.152C7.612 4.27733 8.22 3.41867 9.436 2.576C10.3747 1.936 11.3773 1.45067 12.444 1.12C13.3187 0.853333 14.14 0.719999 14.908 0.719999C16.668 0.719999 17.548 1.41333 17.548 2.8C17.548 3.78133 17.1587 5.00267 16.38 6.464C16.6893 6.10133 16.9987 5.728 17.308 5.344C17.628 4.94933 17.9267 4.592 18.204 4.272C18.652 3.77067 19.0573 3.39733 19.42 3.152C19.7827 2.90667 20.0973 2.784 20.364 2.784C21.1427 2.784 21.532 3.15733 21.532 3.904C21.532 4.544 21.2227 5.536 20.604 6.88C19.9853 8.224 19.676 9.09867 19.676 9.504C19.676 9.824 19.8253 9.984 20.124 9.984C20.284 9.984 20.492 9.89333 20.748 9.712C21.0147 9.53067 21.164 9.44 21.196 9.44C21.2387 9.44 21.26 9.46667 21.26 9.52C21.26 9.73333 21.116 9.92 20.828 10.08C20.5293 10.24 20.2627 10.32 20.028 10.32C19.4627 10.32 19.18 10.0213 19.18 9.424C19.18 8.98667 19.34 8.4 19.66 7.664L20.268 6.272C20.3853 6.00533 20.4867 5.75467 20.572 5.52C20.6573 5.27467 20.7267 5.04533 20.78 4.832C20.908 4.39467 20.972 4.05333 20.972 3.808C20.972 3.43467 20.8387 3.248 20.572 3.248C20.4227 3.248 20.2573 3.29067 20.076 3.376C19.692 3.54667 19.2547 3.86667 18.764 4.336C18.2733 4.79467 17.7453 5.38133 17.18 6.096C16.7533 6.62933 16.3427 7.17867 15.948 7.744C15.5533 8.29867 15.1853 8.87467 14.844 9.472C14.7693 9.6 14.6627 9.76533 14.524 9.968C14.396 10.16 14.2413 10.368 14.06 10.592Z" fill="url(#paint0_linear_7_2)"/>
<path d="M4.56 10.768C4.03733 10.768 3.776 10.4373 3.776 9.776C3.776 8.976 4.144 7.76 4.88 6.128C5.14667 5.53067 5.42933 4.944 5.728 4.368C6.02667 3.792 6.34133 3.22667 6.672 2.672L4.272 3.36C3.792 3.49867 3.35467 3.59467 2.96 3.648C2.56533 3.70133 2.19733 3.728 1.856 3.728C0.885333 3.728 0.4 3.47733 0.4 2.976C0.4 2.82667 0.453333 2.66667 0.56 2.496C0.869333 2.02667 1.41867 1.66933 2.208 1.424C2.848 1.22133 3.51467 1.12 4.208 1.12C4.83733 1.12 5.296 1.16267 5.584 1.248C5.72267 1.29067 5.792 1.36 5.792 1.456C5.792 1.54133 5.74933 1.584 5.664 1.584H5.616C5.17867 1.584 4.848 1.56267 4.624 1.52C4.4 1.47733 4.27733 1.456 4.256 1.456C3.712 1.456 3.152 1.53067 2.576 1.68C1.85067 1.872 1.36 2.128 1.104 2.448C0.997333 2.56533 0.944 2.672 0.944 2.768C0.944 3.03467 1.26933 3.168 1.92 3.168C2.22933 3.168 2.59733 3.136 3.024 3.072C3.46133 2.99733 3.94667 2.89067 4.48 2.752C4.864 2.64533 5.18933 2.56 5.456 2.496C5.73333 2.42133 5.99467 2.352 6.24 2.288C6.48533 2.21333 6.75733 2.13333 7.056 2.048C7.06667 2.02667 7.104 1.968 7.168 1.872C7.232 1.76533 7.296 1.67467 7.36 1.6C7.50933 1.44 7.76533 1.36 8.128 1.36C8.26667 1.36 8.336 1.38667 8.336 1.44C8.336 1.46133 8.24533 1.59467 8.064 1.84C8.39467 1.78667 8.70933 1.744 9.008 1.712C9.31733 1.68 9.61067 1.664 9.888 1.664C10.4747 1.664 11.0667 1.81867 11.664 2.128C12.3573 2.50133 12.704 2.944 12.704 3.456C12.704 3.62667 12.6507 3.712 12.544 3.712C12.4907 3.712 12.4533 3.664 12.432 3.568C12.4 3.39733 12.3573 3.25867 12.304 3.152C12.2187 2.992 12.0853 2.848 11.904 2.72C11.7227 2.58133 11.5147 2.46933 11.28 2.384C10.8533 2.224 10.4213 2.144 9.984 2.144C9.30133 2.144 8.51733 2.24 7.632 2.432C6.87467 3.50933 6.18133 4.68267 5.552 5.952C4.77333 7.52 4.384 8.81067 4.384 9.824C4.384 10.24 4.45333 10.448 4.592 10.448C4.67733 10.448 4.81067 10.3893 4.992 10.272C5.184 10.144 5.28 10.08 5.28 10.08C5.376 10.08 5.424 10.128 5.424 10.224C5.424 10.3413 5.31733 10.4587 5.104 10.576C4.88 10.704 4.69867 10.768 4.56 10.768ZM14.06 10.592C13.8253 10.592 13.708 10.4747 13.708 10.24C13.708 10.1547 13.724 10.0907 13.756 10.048C14.0333 9.70667 14.332 9.25867 14.652 8.704C14.972 8.13867 15.324 7.42933 15.708 6.576C16.476 4.85867 16.86 3.61067 16.86 2.832C16.86 1.68 16.1773 1.104 14.812 1.104C14.1613 1.104 13.42 1.248 12.588 1.536C12.108 1.696 11.6387 1.888 11.18 2.112C10.732 2.336 10.2733 2.61333 9.804 2.944C8.62 3.75467 8.028 4.53333 8.028 5.28C8.028 5.888 8.43867 6.192 9.26 6.192C9.676 6.192 10.268 6.08533 11.036 5.872C11.0787 5.86133 11.1107 5.856 11.132 5.856C11.164 5.84533 11.1853 5.84 11.196 5.84C11.2813 5.84 11.324 5.872 11.324 5.936C11.324 6.11733 11.0467 6.272 10.492 6.4C10.2787 6.44267 10.0813 6.48 9.9 6.512C9.71867 6.544 9.55333 6.56 9.404 6.56C8.20933 6.56 7.612 6.09067 7.612 5.152C7.612 4.27733 8.22 3.41867 9.436 2.576C10.3747 1.936 11.3773 1.45067 12.444 1.12C13.3187 0.853333 14.14 0.719999 14.908 0.719999C16.668 0.719999 17.548 1.41333 17.548 2.8C17.548 3.78133 17.1587 5.00267 16.38 6.464C16.6893 6.10133 16.9987 5.728 17.308 5.344C17.628 4.94933 17.9267 4.592 18.204 4.272C18.652 3.77067 19.0573 3.39733 19.42 3.152C19.7827 2.90667 20.0973 2.784 20.364 2.784C21.1427 2.784 21.532 3.15733 21.532 3.904C21.532 4.544 21.2227 5.536 20.604 6.88C19.9853 8.224 19.676 9.09867 19.676 9.504C19.676 9.824 19.8253 9.984 20.124 9.984C20.284 9.984 20.492 9.89333 20.748 9.712C21.0147 9.53067 21.164 9.44 21.196 9.44C21.2387 9.44 21.26 9.46667 21.26 9.52C21.26 9.73333 21.116 9.92 20.828 10.08C20.5293 10.24 20.2627 10.32 20.028 10.32C19.4627 10.32 19.18 10.0213 19.18 9.424C19.18 8.98667 19.34 8.4 19.66 7.664L20.268 6.272C20.3853 6.00533 20.4867 5.75467 20.572 5.52C20.6573 5.27467 20.7267 5.04533 20.78 4.832C20.908 4.39467 20.972 4.05333 20.972 3.808C20.972 3.43467 20.8387 3.248 20.572 3.248C20.4227 3.248 20.2573 3.29067 20.076 3.376C19.692 3.54667 19.2547 3.86667 18.764 4.336C18.2733 4.79467 17.7453 5.38133 17.18 6.096C16.7533 6.62933 16.3427 7.17867 15.948 7.744C15.5533 8.29867 15.1853 8.87467 14.844 9.472C14.7693 9.6 14.6627 9.76533 14.524 9.968C14.396 10.16 14.2413 10.368 14.06 10.592Z" fill="url(#paint1_linear_7_2)"/>
<defs>
<linearGradient id="paint0_linear_7_2" x1="14.3297" y1="35.3243" x2="9.8442" y2="36.202" gradientUnits="userSpaceOnUse">
<stop stop-color="#FF4500"/>
<stop offset="0.980988" stop-color="#FF4500" stop-opacity="0"/>
</linearGradient>
<linearGradient id="paint1_linear_7_2" x1="2.75" y1="-4.35484" x2="6.12218" y2="-4.29286" gradientUnits="userSpaceOnUse">
<stop stop-color="#8B0000"/>
<stop offset="1" stop-color="#FFFF00" stop-opacity="0"/>
</linearGradient>
</defs>
</svg>
