<svg width="182" height="24" viewBox="0 0 182 24" fill="none" xmlns="http://www.w3.org/2000/svg">
<path d="M22.6094 4.65625H13.6562V23H9.59375V4.65625H0.625V0.59375H22.6094V4.65625ZM41.5469 11.7031C41.5469 12.2656 41.4479 12.875 41.25 13.5312C41.0521 14.1771 40.7292 14.7812 40.2812 15.3438C39.8438 15.8958 39.2656 16.3594 38.5469 16.7344C37.8385 17.1094 36.974 17.2969 35.9531 17.2969H28.625V13.4375H35.9531C36.5052 13.4375 36.9323 13.2708 37.2344 12.9375C37.5365 12.5938 37.6875 12.1719 37.6875 11.6719C37.6875 11.1406 37.5156 10.724 37.1719 10.4219C36.8385 10.1198 36.4323 9.96875 35.9531 9.96875H28.625C28.0729 9.96875 27.6458 10.1406 27.3438 10.4844C27.0417 10.8177 26.8906 11.2344 26.8906 11.7344V17.4062C26.8906 17.9479 27.0573 18.3698 27.3906 18.6719C27.7344 18.974 28.1562 19.125 28.6562 19.125H35.9531V23H28.625C28.0625 23 27.4531 22.901 26.7969 22.7031C26.151 22.5052 25.5469 22.1875 24.9844 21.75C24.4323 21.3021 23.9688 20.724 23.5938 20.0156C23.2188 19.2969 23.0312 18.4271 23.0312 17.4062V11.7031C23.0312 11.1406 23.1302 10.5365 23.3281 9.89062C23.526 9.23438 23.8438 8.63021 24.2812 8.07812C24.7292 7.51562 25.3073 7.04688 26.0156 6.67188C26.7344 6.29688 27.6042 6.10938 28.625 6.10938H35.9531C36.5156 6.10938 37.1198 6.20833 37.7656 6.40625C38.4219 6.60417 39.026 6.92708 39.5781 7.375C40.1406 7.8125 40.6094 8.39062 40.9844 9.10938C41.3594 9.81771 41.5469 10.6823 41.5469 11.7031ZM59.0625 10.1719H49.9219C49.3698 10.1719 48.9531 10.3125 48.6719 10.5938C48.3906 10.8646 48.25 11.2656 48.25 11.7969V23H44.1875V11.7969C44.1875 11.099 44.276 10.474 44.4531 9.92188C44.6302 9.36979 44.8646 8.88542 45.1562 8.46875C45.4583 8.04167 45.8021 7.68229 46.1875 7.39062C46.5729 7.08854 46.974 6.84375 47.3906 6.65625C47.8177 6.46875 48.2448 6.33333 48.6719 6.25C49.1094 6.15625 49.5156 6.10938 49.8906 6.10938H59.0625V10.1719ZM76.4375 10.1719H67.2969C66.7448 10.1719 66.3281 10.3125 66.0469 10.5938C65.7656 10.8646 65.625 11.2656 65.625 11.7969V23H61.5625V11.7969C61.5625 11.099 61.651 10.474 61.8281 9.92188C62.0052 9.36979 62.2396 8.88542 62.5312 8.46875C62.8333 8.04167 63.1771 7.68229 63.5625 7.39062C63.9479 7.08854 64.349 6.84375 64.7656 6.65625C65.1927 6.46875 65.6198 6.33333 66.0469 6.25C66.4844 6.15625 66.8906 6.10938 67.2656 6.10938H76.4375V10.1719ZM95.25 17.4062C95.25 17.9688 95.151 18.5781 94.9531 19.2344C94.7552 19.8802 94.4323 20.4844 93.9844 21.0469C93.5469 21.599 92.9688 22.0625 92.25 22.4375C91.5417 22.8125 90.6771 23 89.6562 23H82.3281C81.7656 23 81.1562 22.901 80.5 22.7031C79.8542 22.5052 79.25 22.1875 78.6875 21.75C78.1354 21.3021 77.6719 20.724 77.2969 20.0156C76.9219 19.2969 76.7344 18.4271 76.7344 17.4062C76.7344 16.8438 76.8333 16.2344 77.0312 15.5781C77.2292 14.9219 77.5469 14.3177 77.9844 13.7656C78.4323 13.2031 79.0104 12.7344 79.7188 12.3594C80.4375 11.9844 81.3073 11.7969 82.3281 11.7969H89.6562V15.6719H82.3281C81.776 15.6719 81.349 15.8438 81.0469 16.1875C80.7448 16.5208 80.5938 16.9375 80.5938 17.4375C80.5938 17.9688 80.7656 18.3854 81.1094 18.6875C81.4635 18.9792 81.8802 19.125 82.3594 19.125H89.6562C90.2083 19.125 90.6354 18.9583 90.9375 18.625C91.2396 18.2917 91.3906 17.875 91.3906 17.375V11.7031C91.3906 11.1719 91.224 10.75 90.8906 10.4375C90.5677 10.125 90.1562 9.96875 89.6562 9.96875H80.7344V6.10938H89.6562C90.2188 6.10938 90.8229 6.20833 91.4688 6.40625C92.125 6.60417 92.7292 6.92708 93.2812 7.375C93.8438 7.8125 94.3125 8.39062 94.6875 9.10938C95.0625 9.81771 95.25 10.6823 95.25 11.7031V17.4062ZM117.438 23H113.375V13.625C113.375 13.0938 113.281 12.6198 113.094 12.2031C112.917 11.776 112.672 11.4115 112.359 11.1094C112.047 10.8073 111.677 10.5781 111.25 10.4219C110.833 10.2552 110.38 10.1719 109.891 10.1719H102.781V23H98.7188V8.125C98.7188 7.84375 98.7708 7.58333 98.875 7.34375C98.9792 7.09375 99.125 6.88021 99.3125 6.70312C99.5 6.51562 99.7188 6.36979 99.9688 6.26562C100.219 6.16146 100.484 6.10938 100.766 6.10938H109.922C110.432 6.10938 110.969 6.16667 111.531 6.28125C112.104 6.39583 112.667 6.58333 113.219 6.84375C113.781 7.09375 114.312 7.41667 114.812 7.8125C115.323 8.19792 115.771 8.67188 116.156 9.23438C116.552 9.78646 116.865 10.4271 117.094 11.1562C117.323 11.8854 117.438 12.7083 117.438 13.625V23ZM139.375 17.2969C139.375 17.9948 139.286 18.625 139.109 19.1875C138.932 19.7396 138.698 20.2292 138.406 20.6562C138.115 21.0729 137.776 21.4323 137.391 21.7344C137.005 22.026 136.599 22.2656 136.172 22.4531C135.755 22.6406 135.328 22.7812 134.891 22.875C134.464 22.9583 134.057 23 133.672 23H126.344C125.781 23 125.167 22.901 124.5 22.7031C123.833 22.5052 123.214 22.1823 122.641 21.7344C122.078 21.276 121.604 20.6875 121.219 19.9688C120.844 19.2396 120.656 18.349 120.656 17.2969V11.7969C120.656 10.7552 120.844 9.875 121.219 9.15625C121.604 8.42708 122.078 7.83854 122.641 7.39062C123.214 6.93229 123.833 6.60417 124.5 6.40625C125.167 6.20833 125.781 6.10938 126.344 6.10938H133.672C134.714 6.10938 135.599 6.29688 136.328 6.67188C137.057 7.04688 137.646 7.52083 138.094 8.09375C138.542 8.65625 138.865 9.27083 139.062 9.9375C139.271 10.6042 139.375 11.224 139.375 11.7969V17.2969ZM135.312 11.8281C135.312 11.2656 135.172 10.849 134.891 10.5781C134.609 10.3073 134.203 10.1719 133.672 10.1719H126.375C125.833 10.1719 125.422 10.3125 125.141 10.5938C124.859 10.8646 124.719 11.2656 124.719 11.7969V17.2969C124.719 17.8281 124.859 18.2344 125.141 18.5156C125.422 18.7969 125.833 18.9375 126.375 18.9375H133.672C134.224 18.9375 134.635 18.7969 134.906 18.5156C135.177 18.2344 135.312 17.8281 135.312 17.2969V11.8281ZM163 6.10938C162.542 7.53646 162.005 8.94271 161.391 10.3281C160.776 11.7135 160.068 13.0365 159.266 14.2969C158.474 15.5469 157.583 16.7083 156.594 17.7812C155.615 18.8438 154.526 19.7656 153.328 20.5469C152.141 21.3177 150.844 21.9271 149.438 22.375C148.042 22.8125 146.526 23.0312 144.891 23.0312C144.609 23.0312 144.344 22.9792 144.094 22.875C143.844 22.7708 143.625 22.6302 143.438 22.4531C143.25 22.2656 143.104 22.0521 143 21.8125C142.896 21.5625 142.844 21.2969 142.844 21.0156V6.10938H146.906V18.8125C147.896 18.8125 148.844 18.599 149.75 18.1719C150.667 17.7448 151.531 17.1823 152.344 16.4844C153.156 15.776 153.906 14.974 154.594 14.0781C155.292 13.1823 155.911 12.2656 156.453 11.3281C156.995 10.3802 157.453 9.45312 157.828 8.54688C158.214 7.64062 158.5 6.82812 158.688 6.10938H163ZM181.375 17.4062C181.375 17.9688 181.276 18.5781 181.078 19.2344C180.88 19.8802 180.557 20.4844 180.109 21.0469C179.672 21.599 179.094 22.0625 178.375 22.4375C177.667 22.8125 176.802 23 175.781 23H168.453C167.891 23 167.281 22.901 166.625 22.7031C165.979 22.5052 165.375 22.1875 164.812 21.75C164.26 21.3021 163.797 20.724 163.422 20.0156C163.047 19.2969 162.859 18.4271 162.859 17.4062C162.859 16.8438 162.958 16.2344 163.156 15.5781C163.354 14.9219 163.672 14.3177 164.109 13.7656C164.557 13.2031 165.135 12.7344 165.844 12.3594C166.562 11.9844 167.432 11.7969 168.453 11.7969H175.781V15.6719H168.453C167.901 15.6719 167.474 15.8438 167.172 16.1875C166.87 16.5208 166.719 16.9375 166.719 17.4375C166.719 17.9688 166.891 18.3854 167.234 18.6875C167.589 18.9792 168.005 19.125 168.484 19.125H175.781C176.333 19.125 176.76 18.9583 177.062 18.625C177.365 18.2917 177.516 17.875 177.516 17.375V11.7031C177.516 11.1719 177.349 10.75 177.016 10.4375C176.693 10.125 176.281 9.96875 175.781 9.96875H166.859V6.10938H175.781C176.344 6.10938 176.948 6.20833 177.594 6.40625C178.25 6.60417 178.854 6.92708 179.406 7.375C179.969 7.8125 180.438 8.39062 180.812 9.10938C181.188 9.81771 181.375 10.6823 181.375 11.7031V17.4062Z" fill="url(#paint0_linear_1_2)"/>
<path d="M22.6094 4.65625H13.6562V23H9.59375V4.65625H0.625V0.59375H22.6094V4.65625ZM41.5469 11.7031C41.5469 12.2656 41.4479 12.875 41.25 13.5312C41.0521 14.1771 40.7292 14.7812 40.2812 15.3438C39.8438 15.8958 39.2656 16.3594 38.5469 16.7344C37.8385 17.1094 36.974 17.2969 35.9531 17.2969H28.625V13.4375H35.9531C36.5052 13.4375 36.9323 13.2708 37.2344 12.9375C37.5365 12.5938 37.6875 12.1719 37.6875 11.6719C37.6875 11.1406 37.5156 10.724 37.1719 10.4219C36.8385 10.1198 36.4323 9.96875 35.9531 9.96875H28.625C28.0729 9.96875 27.6458 10.1406 27.3438 10.4844C27.0417 10.8177 26.8906 11.2344 26.8906 11.7344V17.4062C26.8906 17.9479 27.0573 18.3698 27.3906 18.6719C27.7344 18.974 28.1562 19.125 28.6562 19.125H35.9531V23H28.625C28.0625 23 27.4531 22.901 26.7969 22.7031C26.151 22.5052 25.5469 22.1875 24.9844 21.75C24.4323 21.3021 23.9688 20.724 23.5938 20.0156C23.2188 19.2969 23.0312 18.4271 23.0312 17.4062V11.7031C23.0312 11.1406 23.1302 10.5365 23.3281 9.89062C23.526 9.23438 23.8438 8.63021 24.2812 8.07812C24.7292 7.51562 25.3073 7.04688 26.0156 6.67188C26.7344 6.29688 27.6042 6.10938 28.625 6.10938H35.9531C36.5156 6.10938 37.1198 6.20833 37.7656 6.40625C38.4219 6.60417 39.026 6.92708 39.5781 7.375C40.1406 7.8125 40.6094 8.39062 40.9844 9.10938C41.3594 9.81771 41.5469 10.6823 41.5469 11.7031ZM59.0625 10.1719H49.9219C49.3698 10.1719 48.9531 10.3125 48.6719 10.5938C48.3906 10.8646 48.25 11.2656 48.25 11.7969V23H44.1875V11.7969C44.1875 11.099 44.276 10.474 44.4531 9.92188C44.6302 9.36979 44.8646 8.88542 45.1562 8.46875C45.4583 8.04167 45.8021 7.68229 46.1875 7.39062C46.5729 7.08854 46.974 6.84375 47.3906 6.65625C47.8177 6.46875 48.2448 6.33333 48.6719 6.25C49.1094 6.15625 49.5156 6.10938 49.8906 6.10938H59.0625V10.1719ZM76.4375 10.1719H67.2969C66.7448 10.1719 66.3281 10.3125 66.0469 10.5938C65.7656 10.8646 65.625 11.2656 65.625 11.7969V23H61.5625V11.7969C61.5625 11.099 61.651 10.474 61.8281 9.92188C62.0052 9.36979 62.2396 8.88542 62.5312 8.46875C62.8333 8.04167 63.1771 7.68229 63.5625 7.39062C63.9479 7.08854 64.349 6.84375 64.7656 6.65625C65.1927 6.46875 65.6198 6.33333 66.0469 6.25C66.4844 6.15625 66.8906 6.10938 67.2656 6.10938H76.4375V10.1719ZM95.25 17.4062C95.25 17.9688 95.151 18.5781 94.9531 19.2344C94.7552 19.8802 94.4323 20.4844 93.9844 21.0469C93.5469 21.599 92.9688 22.0625 92.25 22.4375C91.5417 22.8125 90.6771 23 89.6562 23H82.3281C81.7656 23 81.1562 22.901 80.5 22.7031C79.8542 22.5052 79.25 22.1875 78.6875 21.75C78.1354 21.3021 77.6719 20.724 77.2969 20.0156C76.9219 19.2969 76.7344 18.4271 76.7344 17.4062C76.7344 16.8438 76.8333 16.2344 77.0312 15.5781C77.2292 14.9219 77.5469 14.3177 77.9844 13.7656C78.4323 13.2031 79.0104 12.7344 79.7188 12.3594C80.4375 11.9844 81.3073 11.7969 82.3281 11.7969H89.6562V15.6719H82.3281C81.776 15.6719 81.349 15.8438 81.0469 16.1875C80.7448 16.5208 80.5938 16.9375 80.5938 17.4375C80.5938 17.9688 80.7656 18.3854 81.1094 18.6875C81.4635 18.9792 81.8802 19.125 82.3594 19.125H89.6562C90.2083 19.125 90.6354 18.9583 90.9375 18.625C91.2396 18.2917 91.3906 17.875 91.3906 17.375V11.7031C91.3906 11.1719 91.224 10.75 90.8906 10.4375C90.5677 10.125 90.1562 9.96875 89.6562 9.96875H80.7344V6.10938H89.6562C90.2188 6.10938 90.8229 6.20833 91.4688 6.40625C92.125 6.60417 92.7292 6.92708 93.2812 7.375C93.8438 7.8125 94.3125 8.39062 94.6875 9.10938C95.0625 9.81771 95.25 10.6823 95.25 11.7031V17.4062ZM117.438 23H113.375V13.625C113.375 13.0938 113.281 12.6198 113.094 12.2031C112.917 11.776 112.672 11.4115 112.359 11.1094C112.047 10.8073 111.677 10.5781 111.25 10.4219C110.833 10.2552 110.38 10.1719 109.891 10.1719H102.781V23H98.7188V8.125C98.7188 7.84375 98.7708 7.58333 98.875 7.34375C98.9792 7.09375 99.125 6.88021 99.3125 6.70312C99.5 6.51562 99.7188 6.36979 99.9688 6.26562C100.219 6.16146 100.484 6.10938 100.766 6.10938H109.922C110.432 6.10938 110.969 6.16667 111.531 6.28125C112.104 6.39583 112.667 6.58333 113.219 6.84375C113.781 7.09375 114.312 7.41667 114.812 7.8125C115.323 8.19792 115.771 8.67188 116.156 9.23438C116.552 9.78646 116.865 10.4271 117.094 11.1562C117.323 11.8854 117.438 12.7083 117.438 13.625V23ZM139.375 17.2969C139.375 17.9948 139.286 18.625 139.109 19.1875C138.932 19.7396 138.698 20.2292 138.406 20.6562C138.115 21.0729 137.776 21.4323 137.391 21.7344C137.005 22.026 136.599 22.2656 136.172 22.4531C135.755 22.6406 135.328 22.7812 134.891 22.875C134.464 22.9583 134.057 23 133.672 23H126.344C125.781 23 125.167 22.901 124.5 22.7031C123.833 22.5052 123.214 22.1823 122.641 21.7344C122.078 21.276 121.604 20.6875 121.219 19.9688C120.844 19.2396 120.656 18.349 120.656 17.2969V11.7969C120.656 10.7552 120.844 9.875 121.219 9.15625C121.604 8.42708 122.078 7.83854 122.641 7.39062C123.214 6.93229 123.833 6.60417 124.5 6.40625C125.167 6.20833 125.781 6.10938 126.344 6.10938H133.672C134.714 6.10938 135.599 6.29688 136.328 6.67188C137.057 7.04688 137.646 7.52083 138.094 8.09375C138.542 8.65625 138.865 9.27083 139.062 9.9375C139.271 10.6042 139.375 11.224 139.375 11.7969V17.2969ZM135.312 11.8281C135.312 11.2656 135.172 10.849 134.891 10.5781C134.609 10.3073 134.203 10.1719 133.672 10.1719H126.375C125.833 10.1719 125.422 10.3125 125.141 10.5938C124.859 10.8646 124.719 11.2656 124.719 11.7969V17.2969C124.719 17.8281 124.859 18.2344 125.141 18.5156C125.422 18.7969 125.833 18.9375 126.375 18.9375H133.672C134.224 18.9375 134.635 18.7969 134.906 18.5156C135.177 18.2344 135.312 17.8281 135.312 17.2969V11.8281ZM163 6.10938C162.542 7.53646 162.005 8.94271 161.391 10.3281C160.776 11.7135 160.068 13.0365 159.266 14.2969C158.474 15.5469 157.583 16.7083 156.594 17.7812C155.615 18.8438 154.526 19.7656 153.328 20.5469C152.141 21.3177 150.844 21.9271 149.438 22.375C148.042 22.8125 146.526 23.0312 144.891 23.0312C144.609 23.0312 144.344 22.9792 144.094 22.875C143.844 22.7708 143.625 22.6302 143.438 22.4531C143.25 22.2656 143.104 22.0521 143 21.8125C142.896 21.5625 142.844 21.2969 142.844 21.0156V6.10938H146.906V18.8125C147.896 18.8125 148.844 18.599 149.75 18.1719C150.667 17.7448 151.531 17.1823 152.344 16.4844C153.156 15.776 153.906 14.974 154.594 14.0781C155.292 13.1823 155.911 12.2656 156.453 11.3281C156.995 10.3802 157.453 9.45312 157.828 8.54688C158.214 7.64062 158.5 6.82812 158.688 6.10938H163ZM181.375 17.4062C181.375 17.9688 181.276 18.5781 181.078 19.2344C180.88 19.8802 180.557 20.4844 180.109 21.0469C179.672 21.599 179.094 22.0625 178.375 22.4375C177.667 22.8125 176.802 23 175.781 23H168.453C167.891 23 167.281 22.901 166.625 22.7031C165.979 22.5052 165.375 22.1875 164.812 21.75C164.26 21.3021 163.797 20.724 163.422 20.0156C163.047 19.2969 162.859 18.4271 162.859 17.4062C162.859 16.8438 162.958 16.2344 163.156 15.5781C163.354 14.9219 163.672 14.3177 164.109 13.7656C164.557 13.2031 165.135 12.7344 165.844 12.3594C166.562 11.9844 167.432 11.7969 168.453 11.7969H175.781V15.6719H168.453C167.901 15.6719 167.474 15.8438 167.172 16.1875C166.87 16.5208 166.719 16.9375 166.719 17.4375C166.719 17.9688 166.891 18.3854 167.234 18.6875C167.589 18.9792 168.005 19.125 168.484 19.125H175.781C176.333 19.125 176.76 18.9583 177.062 18.625C177.365 18.2917 177.516 17.875 177.516 17.375V11.7031C177.516 11.1719 177.349 10.75 177.016 10.4375C176.693 10.125 176.281 9.96875 175.781 9.96875H166.859V6.10938H175.781C176.344 6.10938 176.948 6.20833 177.594 6.40625C178.25 6.60417 178.854 6.92708 179.406 7.375C179.969 7.8125 180.438 8.39062 180.812 9.10938C181.188 9.81771 181.375 10.6823 181.375 11.7031V17.4062Z" fill="url(#paint1_linear_1_2)"/>
<defs>
<linearGradient id="paint0_linear_1_2" x1="120.5" y1="75" x2="94.5" y2="93.5" gradientUnits="userSpaceOnUse">
<stop stop-color="#FF4500"/>
<stop offset="0.980988" stop-color="#FF4500" stop-opacity="0"/>
</linearGradient>
<linearGradient id="paint1_linear_1_2" x1="76" y1="-11.5" x2="103.002" y2="42.8022" gradientUnits="userSpaceOnUse">
<stop stop-color="#8B0000"/>
<stop offset="1" stop-color="#FFFF00" stop-opacity="0"/>
</linearGradient>
</defs>
</svg>
