<svg t="1681218928105" class="icon" viewBox="0 0 1024 1024" version="1.1" xmlns="http://www.w3.org/2000/svg" p-id="6622" width="64" height="64"><path d="M803.4 738.3h-3.8c-48.2-0.5-94.9-10.1-138.9-28.7-43.6-18.4-82.8-44.8-116.5-78.4-33.7-33.6-60.1-72.7-78.5-116.3-19.1-45-28.7-92.9-28.7-142.3s9.7-97.3 28.7-142.3c12.9-30.4 29.7-58.6 50.1-84.3 8.8-11.1 18.3-21.8 28.5-31.9 2.6-2.6 5.2-5.1 7.8-7.6 15.5-14.6 6-40.7-15.3-41.9-8.2-0.4-16.5-0.7-24.8-0.7-11.6 0-23.2 0.4-34.6 1.3C245.7 82.9 63.3 276 63.3 511.6c0 247.3 200.8 447.7 448.5 447.7 128.5 0 244.4-53.9 326.1-140.4 13.7-14.4 26.4-29.8 38-45.9 12.4-17.2-1.9-40.9-23-38.1-16.2 2.3-32.8 3.4-49.5 3.4zM654.5 848.6c-45.1 19.1-93.2 28.7-142.7 28.7s-97.5-9.7-142.7-28.7c-43.6-18.4-82.8-44.8-116.5-78.4-33.7-33.6-60.1-72.7-78.5-116.3-19.1-45-28.7-92.9-28.7-142.3s9.7-97.3 28.7-142.3c18.4-43.5 44.9-82.6 78.5-116.3 33.7-33.6 72.9-60 116.5-78.4 12.8-5.4 25.8-10 39-13.9-34 63.1-53.3 135.2-53.3 211.8 0 218.9 157.4 401.1 365.3 440-20.5 14.3-42.4 26.3-65.6 36.1z" p-id="6623" fill="#707070"></path></svg>