<svg t="1681217921463" class="icon" viewBox="0 0 1025 1024" version="1.1" xmlns="http://www.w3.org/2000/svg" p-id="3807" width="64" height="64"><path d="M723.234291 722.535996m-299.269362 0a299.269362 299.269362 0 1 0 598.538724 0 299.269362 299.269362 0 1 0-598.538724 0Z" fill="#2c2c2c" opacity=".5" p-id="3808"></path><path d="M1022.004871 734.905796V6.683682c0-2.793181-2.194642-4.987823-4.987823-4.987822H5.686118c-2.793181 0-4.987823 2.194642-4.987823 4.987822v728.222114c0 2.793181 2.194642 4.987823 4.987823 4.987823h469.753142c2.793181 0 4.987823 2.194642 4.987822 4.987823v213.279298c0 2.793181-2.194642 4.987823-4.987822 4.987823h-238.417925c-2.793181 0-4.987823 2.194642-4.987823 4.987823v50.875791c0 2.793181 2.194642 4.987823 4.987823 4.987823h548.660496c2.793181 0 4.987823-2.194642 4.987823-4.987823v-50.875791c0-2.793181-2.194642-4.987823-4.987823-4.987823h-238.417925c-2.793181 0-4.987823-2.194642-4.987822-4.987823V744.881442c0-2.793181 2.194642-4.987823 4.987822-4.987823h469.753142c2.693424 0 4.987823-2.294398 4.987823-4.987823zM65.53999 61.549732h891.523429c2.793181 0 4.987823 2.194642 4.987823 4.987823v608.514369c0 2.793181-2.194642 4.987823-4.987823 4.987823H65.53999c-2.793181 0-4.987823-2.194642-4.987822-4.987823v-608.514369c0-2.793181 2.294398-4.987823 4.987822-4.987823z" fill="#2c2c2c" p-id="3809"></path><path d="M453.592596 605.721189c-2.892937 0-5.785874-0.498782-8.479298-1.496347-6.1849-2.294398-11.172723-6.783439-13.965904-12.868583-2.793181-5.985387-3.09245-12.768826-0.798052-18.953726l142.551973-392.142621c3.591232-9.776132 12.868583-16.360058 23.34301-16.360058 2.892937 0 5.785874 0.498782 8.479299 1.496347 12.868583 4.688553 19.452509 18.953726 14.863712 31.822308L476.83585 589.36113c-3.491476 9.776132-12.868583 16.360058-23.243254 16.360059z m213.877838-89.082514c-6.583926 0-12.968339-2.693424-17.557136-7.282221-4.688553-4.688553-7.282221-10.873453-7.282222-17.557136 0-6.48417 2.693424-12.868583 7.282222-17.557136l89.381782-89.381783-89.381782-89.381782c-9.676376-9.676376-9.676376-25.338139 0-35.014516 4.688553-4.688553 10.873453-7.282221 17.557136-7.282221 6.583926 0 12.868583 2.593668 17.557135 7.282221l106.938919 106.938919c4.688553 4.688553 7.282221 10.873453 7.282221 17.557136 0 6.583926-2.593668 12.868583-7.282221 17.557136L684.927813 509.356454c-4.588797 4.688553-10.873453 7.282221-17.457379 7.282221z m-285.203702 0c-6.583926 0-12.868583-2.593668-17.557136-7.282221L257.770677 402.317779c-4.688553-4.688553-7.282221-10.873453-7.282221-17.557136 0-6.583926 2.593668-12.868583 7.282221-17.557136L364.709596 260.364345c4.688553-4.688553 10.873453-7.282221 17.557136-7.282221s12.868583 2.593668 17.557136 7.282221c9.676376 9.676376 9.676376 25.338139 0 35.014515l-89.381783 89.381783 89.381783 89.381783c4.688553 4.688553 7.282221 10.873453 7.282221 17.557136 0 6.583926-2.593668 12.868583-7.282221 17.557136-4.588797 4.688553-11.072966 7.381978-17.557136 7.381977z" fill="#2c2c2c" p-id="3810"></path></svg>